<mxfile host="app.diagrams.net" modified="2022-07-31T09:14:40.670Z" agent="5.0 (Windows NT 10.0; Win64; x64) AppleWebKit/537.36 (KHTML, like Gecko) Chrome/103.0.5060.134 Safari/537.36 Edg/103.0.1264.77" etag="rYrt2ehT15Z2SSfJA-oV" version="20.0.3" type="github">
  <diagram id="vDngCP8xt4QHyT7rM9b4" name="Page-1">
    <mxGraphModel dx="865" dy="456" grid="1" gridSize="10" guides="1" tooltips="1" connect="1" arrows="1" fold="1" page="1" pageScale="1" pageWidth="1000" pageHeight="1000" math="0" shadow="0">
      <root>
        <mxCell id="0" />
        <mxCell id="1" parent="0" />
        <mxCell id="p1iIbR9NMvKLZleKmLRX-2" value="" style="rounded=1;whiteSpace=wrap;html=1;arcSize=7;" parent="1" vertex="1">
          <mxGeometry x="160" y="80" width="80" height="240" as="geometry" />
        </mxCell>
        <mxCell id="p1iIbR9NMvKLZleKmLRX-1" value="例如，执行一条查询语句：&lt;br&gt;&lt;br&gt;SELECT id, fieldA, fieldB FROM&amp;nbsp; table_demo WHERE id &amp;lt; 10" style="text;html=1;align=left;verticalAlign=middle;resizable=0;points=[];autosize=1;strokeColor=none;fillColor=none;" parent="1" vertex="1">
          <mxGeometry x="160" y="10" width="350" height="60" as="geometry" />
        </mxCell>
        <mxCell id="p1iIbR9NMvKLZleKmLRX-3" value="内存" style="text;html=1;align=center;verticalAlign=middle;resizable=0;points=[];autosize=1;strokeColor=none;fillColor=none;" parent="1" vertex="1">
          <mxGeometry x="175" y="80" width="50" height="30" as="geometry" />
        </mxCell>
        <mxCell id="p1iIbR9NMvKLZleKmLRX-4" value="" style="rounded=1;whiteSpace=wrap;html=1;arcSize=7;" parent="1" vertex="1">
          <mxGeometry x="400" y="80" width="80" height="240" as="geometry" />
        </mxCell>
        <mxCell id="p1iIbR9NMvKLZleKmLRX-5" value="磁盘" style="text;html=1;align=center;verticalAlign=middle;resizable=0;points=[];autosize=1;strokeColor=none;fillColor=none;" parent="1" vertex="1">
          <mxGeometry x="415" y="80" width="50" height="30" as="geometry" />
        </mxCell>
        <mxCell id="p1iIbR9NMvKLZleKmLRX-6" value="" style="shape=flexArrow;endArrow=classic;html=1;rounded=0;width=3.333333333333333;endSize=2.814285714285714;endWidth=8.412698412698413;" parent="1" edge="1">
          <mxGeometry width="50" height="50" relative="1" as="geometry">
            <mxPoint x="240" y="110" as="sourcePoint" />
            <mxPoint x="400" y="110" as="targetPoint" />
          </mxGeometry>
        </mxCell>
        <mxCell id="p1iIbR9NMvKLZleKmLRX-7" value="查询" style="text;html=1;align=center;verticalAlign=middle;resizable=0;points=[];autosize=1;strokeColor=none;fillColor=none;fontSize=8;" parent="1" vertex="1">
          <mxGeometry x="295" y="80" width="50" height="30" as="geometry" />
        </mxCell>
        <mxCell id="p1iIbR9NMvKLZleKmLRX-9" value="" style="shape=flexArrow;endArrow=classic;html=1;rounded=0;width=3.333333333333333;endSize=2.814285714285714;endWidth=8.412698412698413;exitX=0;exitY=0.438;exitDx=0;exitDy=0;exitPerimeter=0;" parent="1" edge="1">
          <mxGeometry width="50" height="50" relative="1" as="geometry">
            <mxPoint x="400" y="140.07999999999993" as="sourcePoint" />
            <mxPoint x="240" y="140" as="targetPoint" />
          </mxGeometry>
        </mxCell>
        <mxCell id="p1iIbR9NMvKLZleKmLRX-10" value="&lt;font style=&quot;font-size: 8px;&quot;&gt;返回 id = 1 的数据&lt;/font&gt;" style="text;html=1;align=center;verticalAlign=middle;resizable=0;points=[];autosize=1;strokeColor=none;fillColor=none;fontSize=8;" parent="1" vertex="1">
          <mxGeometry x="260" y="110" width="120" height="30" as="geometry" />
        </mxCell>
        <mxCell id="p1iIbR9NMvKLZleKmLRX-12" value="" style="shape=flexArrow;endArrow=classic;html=1;rounded=0;width=3.333333333333333;endSize=2.814285714285714;endWidth=8.412698412698413;exitX=0;exitY=0.438;exitDx=0;exitDy=0;exitPerimeter=0;" parent="1" edge="1">
          <mxGeometry width="50" height="50" relative="1" as="geometry">
            <mxPoint x="400" y="179.24999999999991" as="sourcePoint" />
            <mxPoint x="240" y="179.17" as="targetPoint" />
          </mxGeometry>
        </mxCell>
        <mxCell id="p1iIbR9NMvKLZleKmLRX-13" value="&lt;font style=&quot;font-size: 8px;&quot;&gt;返回 id = 2 的数据&lt;/font&gt;" style="text;html=1;align=center;verticalAlign=middle;resizable=0;points=[];autosize=1;strokeColor=none;fillColor=none;fontSize=8;" parent="1" vertex="1">
          <mxGeometry x="260" y="149.17" width="120" height="30" as="geometry" />
        </mxCell>
        <mxCell id="p1iIbR9NMvKLZleKmLRX-14" value="" style="shape=flexArrow;endArrow=classic;html=1;rounded=0;width=3.333333333333333;endSize=2.814285714285714;endWidth=8.412698412698413;exitX=0;exitY=0.438;exitDx=0;exitDy=0;exitPerimeter=0;" parent="1" edge="1">
          <mxGeometry width="50" height="50" relative="1" as="geometry">
            <mxPoint x="400" y="220.07999999999993" as="sourcePoint" />
            <mxPoint x="240" y="220" as="targetPoint" />
          </mxGeometry>
        </mxCell>
        <mxCell id="p1iIbR9NMvKLZleKmLRX-15" value="&lt;font style=&quot;font-size: 8px;&quot;&gt;返回 id = 3 的数据&lt;/font&gt;" style="text;html=1;align=center;verticalAlign=middle;resizable=0;points=[];autosize=1;strokeColor=none;fillColor=none;fontSize=8;" parent="1" vertex="1">
          <mxGeometry x="260" y="190" width="120" height="30" as="geometry" />
        </mxCell>
        <mxCell id="p1iIbR9NMvKLZleKmLRX-16" value="" style="shape=flexArrow;endArrow=classic;html=1;rounded=0;width=3.333333333333333;endSize=2.814285714285714;endWidth=8.412698412698413;exitX=0;exitY=0.438;exitDx=0;exitDy=0;exitPerimeter=0;" parent="1" edge="1">
          <mxGeometry width="50" height="50" relative="1" as="geometry">
            <mxPoint x="400" y="260.0799999999999" as="sourcePoint" />
            <mxPoint x="240" y="260" as="targetPoint" />
          </mxGeometry>
        </mxCell>
        <mxCell id="p1iIbR9NMvKLZleKmLRX-17" value="&lt;font style=&quot;font-size: 8px;&quot;&gt;……&lt;/font&gt;" style="text;html=1;align=center;verticalAlign=middle;resizable=0;points=[];autosize=1;strokeColor=none;fillColor=none;fontSize=8;" parent="1" vertex="1">
          <mxGeometry x="295" y="230" width="50" height="30" as="geometry" />
        </mxCell>
        <mxCell id="p1iIbR9NMvKLZleKmLRX-18" value="" style="shape=flexArrow;endArrow=classic;html=1;rounded=0;width=3.333333333333333;endSize=2.814285714285714;endWidth=8.412698412698413;exitX=0;exitY=0.438;exitDx=0;exitDy=0;exitPerimeter=0;" parent="1" edge="1">
          <mxGeometry width="50" height="50" relative="1" as="geometry">
            <mxPoint x="400" y="300.0799999999999" as="sourcePoint" />
            <mxPoint x="240" y="300" as="targetPoint" />
          </mxGeometry>
        </mxCell>
        <mxCell id="p1iIbR9NMvKLZleKmLRX-19" value="&lt;font style=&quot;font-size: 8px;&quot;&gt;返回 id = 10 的数据&lt;/font&gt;" style="text;html=1;align=center;verticalAlign=middle;resizable=0;points=[];autosize=1;strokeColor=none;fillColor=none;fontSize=8;" parent="1" vertex="1">
          <mxGeometry x="255" y="270" width="130" height="30" as="geometry" />
        </mxCell>
        <mxCell id="4jA8FTdPtR9cPU2ZmF4B-1" value="" style="rounded=1;whiteSpace=wrap;html=1;arcSize=7;" vertex="1" parent="1">
          <mxGeometry x="160" y="510" width="80" height="170" as="geometry" />
        </mxCell>
        <mxCell id="4jA8FTdPtR9cPU2ZmF4B-2" value="例如，执行一条查询语句：&lt;br&gt;&lt;br&gt;SELECT id, fieldA, fieldB FROM&amp;nbsp; table_demo WHERE id &amp;lt; 10" style="text;html=1;align=left;verticalAlign=middle;resizable=0;points=[];autosize=1;strokeColor=none;fillColor=none;" vertex="1" parent="1">
          <mxGeometry x="160" y="440" width="350" height="60" as="geometry" />
        </mxCell>
        <mxCell id="4jA8FTdPtR9cPU2ZmF4B-3" value="内存" style="text;html=1;align=center;verticalAlign=middle;resizable=0;points=[];autosize=1;strokeColor=none;fillColor=none;" vertex="1" parent="1">
          <mxGeometry x="175" y="510" width="50" height="30" as="geometry" />
        </mxCell>
        <mxCell id="4jA8FTdPtR9cPU2ZmF4B-4" value="" style="rounded=1;whiteSpace=wrap;html=1;arcSize=7;" vertex="1" parent="1">
          <mxGeometry x="400" y="510" width="80" height="170" as="geometry" />
        </mxCell>
        <mxCell id="4jA8FTdPtR9cPU2ZmF4B-5" value="磁盘" style="text;html=1;align=center;verticalAlign=middle;resizable=0;points=[];autosize=1;strokeColor=none;fillColor=none;" vertex="1" parent="1">
          <mxGeometry x="415" y="510" width="50" height="30" as="geometry" />
        </mxCell>
        <mxCell id="4jA8FTdPtR9cPU2ZmF4B-6" value="" style="shape=flexArrow;endArrow=classic;html=1;rounded=0;width=3.333333333333333;endSize=2.814285714285714;endWidth=8.412698412698413;" edge="1" parent="1">
          <mxGeometry width="50" height="50" relative="1" as="geometry">
            <mxPoint x="240" y="540" as="sourcePoint" />
            <mxPoint x="400" y="540" as="targetPoint" />
          </mxGeometry>
        </mxCell>
        <mxCell id="4jA8FTdPtR9cPU2ZmF4B-7" value="查询" style="text;html=1;align=center;verticalAlign=middle;resizable=0;points=[];autosize=1;strokeColor=none;fillColor=none;fontSize=8;" vertex="1" parent="1">
          <mxGeometry x="295" y="510" width="50" height="30" as="geometry" />
        </mxCell>
        <mxCell id="4jA8FTdPtR9cPU2ZmF4B-8" value="" style="shape=flexArrow;endArrow=classic;html=1;rounded=0;width=3.333333333333333;endSize=2.814285714285714;endWidth=8.412698412698413;exitX=0;exitY=0.438;exitDx=0;exitDy=0;exitPerimeter=0;" edge="1" parent="1">
          <mxGeometry width="50" height="50" relative="1" as="geometry">
            <mxPoint x="400" y="640.0799999999999" as="sourcePoint" />
            <mxPoint x="240" y="640" as="targetPoint" />
          </mxGeometry>
        </mxCell>
        <mxCell id="4jA8FTdPtR9cPU2ZmF4B-9" value="&lt;div style=&quot;text-align: left;&quot;&gt;&lt;span style=&quot;background-color: initial;&quot;&gt;返回一个 page，里面包含&lt;br&gt;所有符合 id &amp;lt; 10 的数据&lt;/span&gt;&lt;/div&gt;&lt;font style=&quot;font-size: 8px;&quot;&gt;&lt;div style=&quot;text-align: left;&quot;&gt;&lt;span style=&quot;background-color: initial;&quot;&gt;（假设返回的数据小于 16K）&lt;/span&gt;&lt;/div&gt;&lt;/font&gt;" style="text;html=1;align=center;verticalAlign=middle;resizable=0;points=[];autosize=1;strokeColor=none;fillColor=none;fontSize=8;" vertex="1" parent="1">
          <mxGeometry x="235" y="580" width="180" height="60" as="geometry" />
        </mxCell>
        <mxCell id="4jA8FTdPtR9cPU2ZmF4B-18" value="InnoDB 索引页的结构" style="text;html=1;align=center;verticalAlign=middle;resizable=0;points=[];autosize=1;strokeColor=none;fillColor=none;" vertex="1" parent="1">
          <mxGeometry x="230" y="770" width="140" height="30" as="geometry" />
        </mxCell>
        <mxCell id="4jA8FTdPtR9cPU2ZmF4B-19" value="File Header&lt;br&gt;（38 字节）" style="rounded=0;whiteSpace=wrap;html=1;fillColor=#dae8fc;strokeColor=#6c8ebf;" vertex="1" parent="1">
          <mxGeometry x="200" y="800" width="200" height="40" as="geometry" />
        </mxCell>
        <mxCell id="4jA8FTdPtR9cPU2ZmF4B-20" value="Page Header&lt;br&gt;（56 字节）" style="rounded=0;whiteSpace=wrap;html=1;fillColor=#ffe6cc;strokeColor=#d79b00;" vertex="1" parent="1">
          <mxGeometry x="200" y="840" width="200" height="40" as="geometry" />
        </mxCell>
        <mxCell id="4jA8FTdPtR9cPU2ZmF4B-21" value="Infimum + Supremum&lt;br&gt;（26 字节 ）" style="rounded=0;whiteSpace=wrap;html=1;fillColor=#f5f5f5;fontColor=#333333;strokeColor=#666666;" vertex="1" parent="1">
          <mxGeometry x="200" y="880" width="200" height="40" as="geometry" />
        </mxCell>
        <mxCell id="4jA8FTdPtR9cPU2ZmF4B-22" value="User Records&amp;nbsp;" style="rounded=0;whiteSpace=wrap;html=1;fillColor=#fff2cc;strokeColor=#d6b656;" vertex="1" parent="1">
          <mxGeometry x="200" y="920" width="200" height="40" as="geometry" />
        </mxCell>
        <mxCell id="4jA8FTdPtR9cPU2ZmF4B-23" value="Free Space" style="rounded=0;whiteSpace=wrap;html=1;fillColor=#ABB3FC;strokeColor=#617FAB;" vertex="1" parent="1">
          <mxGeometry x="200" y="960" width="200" height="40" as="geometry" />
        </mxCell>
        <mxCell id="4jA8FTdPtR9cPU2ZmF4B-24" value="Page Directory&amp;nbsp;" style="rounded=0;whiteSpace=wrap;html=1;fillColor=#d5e8d4;strokeColor=#82b366;" vertex="1" parent="1">
          <mxGeometry x="200" y="1000" width="200" height="40" as="geometry" />
        </mxCell>
        <mxCell id="4jA8FTdPtR9cPU2ZmF4B-25" value="File Trailer&amp;nbsp;&lt;br&gt;（8 字节 ）" style="rounded=0;whiteSpace=wrap;html=1;fillColor=#f8cecc;strokeColor=#b85450;" vertex="1" parent="1">
          <mxGeometry x="200" y="1040" width="200" height="40" as="geometry" />
        </mxCell>
        <mxCell id="4jA8FTdPtR9cPU2ZmF4B-47" style="edgeStyle=orthogonalEdgeStyle;rounded=0;orthogonalLoop=1;jettySize=auto;html=1;exitX=1;exitY=0.25;exitDx=0;exitDy=0;entryX=0;entryY=0.25;entryDx=0;entryDy=0;" edge="1" parent="1" source="4jA8FTdPtR9cPU2ZmF4B-26" target="4jA8FTdPtR9cPU2ZmF4B-33">
          <mxGeometry relative="1" as="geometry" />
        </mxCell>
        <mxCell id="4jA8FTdPtR9cPU2ZmF4B-26" value="File Header&lt;br&gt;（38 字节）" style="rounded=0;whiteSpace=wrap;html=1;fillColor=#dae8fc;strokeColor=#6c8ebf;" vertex="1" parent="1">
          <mxGeometry x="200" y="1160" width="200" height="40" as="geometry" />
        </mxCell>
        <mxCell id="4jA8FTdPtR9cPU2ZmF4B-27" value="Page Header&lt;br&gt;（56 字节）" style="rounded=0;whiteSpace=wrap;html=1;fillColor=#ffe6cc;strokeColor=#d79b00;" vertex="1" parent="1">
          <mxGeometry x="200" y="1200" width="200" height="40" as="geometry" />
        </mxCell>
        <mxCell id="4jA8FTdPtR9cPU2ZmF4B-28" value="Infimum + Supremum&lt;br&gt;（26 字节 ）" style="rounded=0;whiteSpace=wrap;html=1;fillColor=#f5f5f5;fontColor=#333333;strokeColor=#666666;" vertex="1" parent="1">
          <mxGeometry x="200" y="1240" width="200" height="40" as="geometry" />
        </mxCell>
        <mxCell id="4jA8FTdPtR9cPU2ZmF4B-29" value="User Records&amp;nbsp;" style="rounded=0;whiteSpace=wrap;html=1;fillColor=#fff2cc;strokeColor=#d6b656;" vertex="1" parent="1">
          <mxGeometry x="200" y="1280" width="200" height="40" as="geometry" />
        </mxCell>
        <mxCell id="4jA8FTdPtR9cPU2ZmF4B-30" value="Free Space" style="rounded=0;whiteSpace=wrap;html=1;fillColor=#ABB3FC;strokeColor=#617FAB;" vertex="1" parent="1">
          <mxGeometry x="200" y="1320" width="200" height="40" as="geometry" />
        </mxCell>
        <mxCell id="4jA8FTdPtR9cPU2ZmF4B-31" value="Page Directory&amp;nbsp;" style="rounded=0;whiteSpace=wrap;html=1;fillColor=#d5e8d4;strokeColor=#82b366;" vertex="1" parent="1">
          <mxGeometry x="200" y="1360" width="200" height="40" as="geometry" />
        </mxCell>
        <mxCell id="4jA8FTdPtR9cPU2ZmF4B-32" value="File Trailer&amp;nbsp;&lt;br&gt;（8 字节 ）" style="rounded=0;whiteSpace=wrap;html=1;fillColor=#f8cecc;strokeColor=#b85450;" vertex="1" parent="1">
          <mxGeometry x="200" y="1400" width="200" height="40" as="geometry" />
        </mxCell>
        <mxCell id="4jA8FTdPtR9cPU2ZmF4B-48" style="edgeStyle=orthogonalEdgeStyle;rounded=0;orthogonalLoop=1;jettySize=auto;html=1;exitX=1;exitY=0.25;exitDx=0;exitDy=0;entryX=0;entryY=0.25;entryDx=0;entryDy=0;" edge="1" parent="1" source="4jA8FTdPtR9cPU2ZmF4B-33" target="4jA8FTdPtR9cPU2ZmF4B-40">
          <mxGeometry relative="1" as="geometry" />
        </mxCell>
        <mxCell id="4jA8FTdPtR9cPU2ZmF4B-50" style="edgeStyle=orthogonalEdgeStyle;rounded=0;orthogonalLoop=1;jettySize=auto;html=1;entryX=1;entryY=0.75;entryDx=0;entryDy=0;exitX=0;exitY=0.75;exitDx=0;exitDy=0;" edge="1" parent="1" source="4jA8FTdPtR9cPU2ZmF4B-33" target="4jA8FTdPtR9cPU2ZmF4B-26">
          <mxGeometry relative="1" as="geometry" />
        </mxCell>
        <mxCell id="4jA8FTdPtR9cPU2ZmF4B-33" value="File Header&lt;br&gt;（38 字节）" style="rounded=0;whiteSpace=wrap;html=1;fillColor=#dae8fc;strokeColor=#6c8ebf;" vertex="1" parent="1">
          <mxGeometry x="440" y="1160" width="200" height="40" as="geometry" />
        </mxCell>
        <mxCell id="4jA8FTdPtR9cPU2ZmF4B-34" value="Page Header&lt;br&gt;（56 字节）" style="rounded=0;whiteSpace=wrap;html=1;fillColor=#ffe6cc;strokeColor=#d79b00;" vertex="1" parent="1">
          <mxGeometry x="440" y="1200" width="200" height="40" as="geometry" />
        </mxCell>
        <mxCell id="4jA8FTdPtR9cPU2ZmF4B-35" value="Infimum + Supremum&lt;br&gt;（26 字节 ）" style="rounded=0;whiteSpace=wrap;html=1;fillColor=#f5f5f5;fontColor=#333333;strokeColor=#666666;" vertex="1" parent="1">
          <mxGeometry x="440" y="1240" width="200" height="40" as="geometry" />
        </mxCell>
        <mxCell id="4jA8FTdPtR9cPU2ZmF4B-36" value="User Records&amp;nbsp;" style="rounded=0;whiteSpace=wrap;html=1;fillColor=#fff2cc;strokeColor=#d6b656;" vertex="1" parent="1">
          <mxGeometry x="440" y="1280" width="200" height="40" as="geometry" />
        </mxCell>
        <mxCell id="4jA8FTdPtR9cPU2ZmF4B-37" value="Free Space" style="rounded=0;whiteSpace=wrap;html=1;fillColor=#ABB3FC;strokeColor=#617FAB;" vertex="1" parent="1">
          <mxGeometry x="440" y="1320" width="200" height="40" as="geometry" />
        </mxCell>
        <mxCell id="4jA8FTdPtR9cPU2ZmF4B-38" value="Page Directory&amp;nbsp;" style="rounded=0;whiteSpace=wrap;html=1;fillColor=#d5e8d4;strokeColor=#82b366;" vertex="1" parent="1">
          <mxGeometry x="440" y="1360" width="200" height="40" as="geometry" />
        </mxCell>
        <mxCell id="4jA8FTdPtR9cPU2ZmF4B-39" value="File Trailer&amp;nbsp;&lt;br&gt;（8 字节 ）" style="rounded=0;whiteSpace=wrap;html=1;fillColor=#f8cecc;strokeColor=#b85450;" vertex="1" parent="1">
          <mxGeometry x="440" y="1400" width="200" height="40" as="geometry" />
        </mxCell>
        <mxCell id="4jA8FTdPtR9cPU2ZmF4B-49" style="edgeStyle=orthogonalEdgeStyle;rounded=0;orthogonalLoop=1;jettySize=auto;html=1;entryX=1;entryY=0.75;entryDx=0;entryDy=0;exitX=0;exitY=0.75;exitDx=0;exitDy=0;" edge="1" parent="1" source="4jA8FTdPtR9cPU2ZmF4B-40" target="4jA8FTdPtR9cPU2ZmF4B-33">
          <mxGeometry relative="1" as="geometry" />
        </mxCell>
        <mxCell id="4jA8FTdPtR9cPU2ZmF4B-40" value="File Header&lt;br&gt;（38 字节）" style="rounded=0;whiteSpace=wrap;html=1;fillColor=#dae8fc;strokeColor=#6c8ebf;" vertex="1" parent="1">
          <mxGeometry x="680" y="1160" width="200" height="40" as="geometry" />
        </mxCell>
        <mxCell id="4jA8FTdPtR9cPU2ZmF4B-41" value="Page Header&lt;br&gt;（56 字节）" style="rounded=0;whiteSpace=wrap;html=1;fillColor=#ffe6cc;strokeColor=#d79b00;" vertex="1" parent="1">
          <mxGeometry x="680" y="1200" width="200" height="40" as="geometry" />
        </mxCell>
        <mxCell id="4jA8FTdPtR9cPU2ZmF4B-42" value="Infimum + Supremum&lt;br&gt;（26 字节 ）" style="rounded=0;whiteSpace=wrap;html=1;fillColor=#f5f5f5;fontColor=#333333;strokeColor=#666666;" vertex="1" parent="1">
          <mxGeometry x="680" y="1240" width="200" height="40" as="geometry" />
        </mxCell>
        <mxCell id="4jA8FTdPtR9cPU2ZmF4B-43" value="User Records&amp;nbsp;" style="rounded=0;whiteSpace=wrap;html=1;fillColor=#fff2cc;strokeColor=#d6b656;" vertex="1" parent="1">
          <mxGeometry x="680" y="1280" width="200" height="40" as="geometry" />
        </mxCell>
        <mxCell id="4jA8FTdPtR9cPU2ZmF4B-44" value="Free Space" style="rounded=0;whiteSpace=wrap;html=1;fillColor=#ABB3FC;strokeColor=#617FAB;" vertex="1" parent="1">
          <mxGeometry x="680" y="1320" width="200" height="40" as="geometry" />
        </mxCell>
        <mxCell id="4jA8FTdPtR9cPU2ZmF4B-45" value="Page Directory&amp;nbsp;" style="rounded=0;whiteSpace=wrap;html=1;fillColor=#d5e8d4;strokeColor=#82b366;" vertex="1" parent="1">
          <mxGeometry x="680" y="1360" width="200" height="40" as="geometry" />
        </mxCell>
        <mxCell id="4jA8FTdPtR9cPU2ZmF4B-46" value="File Trailer&amp;nbsp;&lt;br&gt;（8 字节 ）" style="rounded=0;whiteSpace=wrap;html=1;fillColor=#f8cecc;strokeColor=#b85450;" vertex="1" parent="1">
          <mxGeometry x="680" y="1400" width="200" height="40" as="geometry" />
        </mxCell>
        <mxCell id="4jA8FTdPtR9cPU2ZmF4B-60" value="File Header" style="rounded=0;whiteSpace=wrap;html=1;fillColor=#dae8fc;strokeColor=#6c8ebf;" vertex="1" parent="1">
          <mxGeometry x="200" y="1520" width="200" height="20" as="geometry" />
        </mxCell>
        <mxCell id="4jA8FTdPtR9cPU2ZmF4B-61" value="Page Header" style="rounded=0;whiteSpace=wrap;html=1;fillColor=#ffe6cc;strokeColor=#d79b00;" vertex="1" parent="1">
          <mxGeometry x="200" y="1540" width="200" height="20" as="geometry" />
        </mxCell>
        <mxCell id="4jA8FTdPtR9cPU2ZmF4B-62" value="" style="rounded=0;whiteSpace=wrap;html=1;fillColor=#f5f5f5;fontColor=#333333;strokeColor=#666666;" vertex="1" parent="1">
          <mxGeometry x="200" y="1560" width="200" height="80" as="geometry" />
        </mxCell>
        <mxCell id="4jA8FTdPtR9cPU2ZmF4B-63" value="" style="rounded=0;whiteSpace=wrap;html=1;fillColor=#fff2cc;strokeColor=#d6b656;" vertex="1" parent="1">
          <mxGeometry x="200" y="1640" width="200" height="120" as="geometry" />
        </mxCell>
        <mxCell id="4jA8FTdPtR9cPU2ZmF4B-64" value="Free Space" style="rounded=0;whiteSpace=wrap;html=1;fillColor=#ABB3FC;strokeColor=#617FAB;" vertex="1" parent="1">
          <mxGeometry x="200" y="1760" width="200" height="20" as="geometry" />
        </mxCell>
        <mxCell id="4jA8FTdPtR9cPU2ZmF4B-65" value="Page Directory&amp;nbsp;" style="rounded=0;whiteSpace=wrap;html=1;fillColor=#d5e8d4;strokeColor=#82b366;" vertex="1" parent="1">
          <mxGeometry x="200" y="1780" width="200" height="20" as="geometry" />
        </mxCell>
        <mxCell id="4jA8FTdPtR9cPU2ZmF4B-66" value="File Trailer&amp;nbsp;" style="rounded=0;whiteSpace=wrap;html=1;fillColor=#f8cecc;strokeColor=#b85450;" vertex="1" parent="1">
          <mxGeometry x="200" y="1800" width="200" height="20" as="geometry" />
        </mxCell>
        <mxCell id="4jA8FTdPtR9cPU2ZmF4B-68" value="&lt;span style=&quot;color: rgb(51, 51, 51);&quot;&gt;Infimum + Supremum&lt;/span&gt;" style="text;html=1;align=center;verticalAlign=middle;resizable=0;points=[];autosize=1;strokeColor=none;fillColor=none;" vertex="1" parent="1">
          <mxGeometry x="230" y="1560" width="140" height="30" as="geometry" />
        </mxCell>
        <mxCell id="4jA8FTdPtR9cPU2ZmF4B-71" value="&lt;span style=&quot;&quot;&gt;User Records&amp;nbsp;&lt;/span&gt;" style="text;html=1;align=center;verticalAlign=middle;resizable=0;points=[];autosize=1;strokeColor=none;fillColor=none;" vertex="1" parent="1">
          <mxGeometry x="250" y="1640" width="100" height="30" as="geometry" />
        </mxCell>
        <mxCell id="4jA8FTdPtR9cPU2ZmF4B-73" value="id = 1 的记录" style="rounded=0;whiteSpace=wrap;html=1;" vertex="1" parent="1">
          <mxGeometry x="240" y="1670" width="120" height="20" as="geometry" />
        </mxCell>
        <mxCell id="4jA8FTdPtR9cPU2ZmF4B-79" style="edgeStyle=orthogonalEdgeStyle;rounded=0;orthogonalLoop=1;jettySize=auto;html=1;entryX=1;entryY=0.5;entryDx=0;entryDy=0;exitX=1;exitY=0.5;exitDx=0;exitDy=0;" edge="1" parent="1" source="4jA8FTdPtR9cPU2ZmF4B-74" target="4jA8FTdPtR9cPU2ZmF4B-73">
          <mxGeometry relative="1" as="geometry">
            <Array as="points">
              <mxPoint x="380" y="1600" />
              <mxPoint x="380" y="1680" />
            </Array>
          </mxGeometry>
        </mxCell>
        <mxCell id="4jA8FTdPtR9cPU2ZmF4B-74" value="&lt;span style=&quot;color: rgb(51, 51, 51);&quot;&gt;Infimum 的记录&lt;/span&gt;" style="rounded=0;whiteSpace=wrap;html=1;" vertex="1" parent="1">
          <mxGeometry x="240" y="1590" width="120" height="20" as="geometry" />
        </mxCell>
        <mxCell id="4jA8FTdPtR9cPU2ZmF4B-75" value="&lt;span style=&quot;color: rgb(51, 51, 51);&quot;&gt;Supremum&lt;/span&gt;&lt;span style=&quot;color: rgb(51, 51, 51);&quot;&gt;&amp;nbsp;的记录&lt;/span&gt;" style="rounded=0;whiteSpace=wrap;html=1;" vertex="1" parent="1">
          <mxGeometry x="240" y="1610" width="120" height="20" as="geometry" />
        </mxCell>
        <mxCell id="4jA8FTdPtR9cPU2ZmF4B-76" value="id = 1 的记录" style="rounded=0;whiteSpace=wrap;html=1;" vertex="1" parent="1">
          <mxGeometry x="240" y="1690" width="120" height="20" as="geometry" />
        </mxCell>
        <mxCell id="4jA8FTdPtR9cPU2ZmF4B-82" style="edgeStyle=orthogonalEdgeStyle;rounded=0;orthogonalLoop=1;jettySize=auto;html=1;entryX=0;entryY=0.5;entryDx=0;entryDy=0;exitX=0;exitY=0.5;exitDx=0;exitDy=0;" edge="1" parent="1" source="4jA8FTdPtR9cPU2ZmF4B-77" target="4jA8FTdPtR9cPU2ZmF4B-75">
          <mxGeometry relative="1" as="geometry">
            <Array as="points">
              <mxPoint x="220" y="1740" />
              <mxPoint x="220" y="1620" />
            </Array>
          </mxGeometry>
        </mxCell>
        <mxCell id="4jA8FTdPtR9cPU2ZmF4B-77" value="id = 100 的记录" style="rounded=0;whiteSpace=wrap;html=1;" vertex="1" parent="1">
          <mxGeometry x="240" y="1730" width="120" height="20" as="geometry" />
        </mxCell>
        <mxCell id="4jA8FTdPtR9cPU2ZmF4B-78" value="……" style="rounded=0;whiteSpace=wrap;html=1;" vertex="1" parent="1">
          <mxGeometry x="240" y="1710" width="120" height="20" as="geometry" />
        </mxCell>
      </root>
    </mxGraphModel>
  </diagram>
</mxfile>
